# xmcd CD database file
#
# Track frame offsets:
#	150
#	33010
#	57687
#	77174
#	99621
#	141837
#	172524
#	217786
#	267606
#	294546
#	323217
#	341756
#
# Disc length: 4799 seconds
#
# Revision: 0
# Processed by: cddbd v1.5.1PL2 Copyright (c) Steve Scherf et al.
# Submitted via: Feurio! 1.68 - http://www.feurio.com
#
DISCID=ae12bd0c
DTITLE=Eric Burdon and The Animals - Love Is
DYEAR=1900
DGENRE=
TTITLE0=Eric Burdon and Animals - River Deep Mountain High
TTITLE1=Eric Burdon and Animals - I'm An Animal
TTITLE2=Eric Burdon and Animals - I'm Dying (Or Am I)
TTITLE3=Eric Burdon and Animals - Ring Of Fire
TTITLE4=Eric Burdon and Animals - Colored Rain
TTITLE5=Eric Burdon and Animals - To Love Somebody
TTITLE6=Eric Burdon and Animals - As The Years Go Passing By
TTITLE7=Eric Burdon and Animals - Gemini
TTITLE8=Eric Burdon and Animals - Madman
TTITLE9=Eric Burdon and War - Tobacco Road
TTITLE10=Eric Burdon and War - Magic Mountain
TTITLE11=Eric Burdon and War - Love Is All Around
EXTD=
EXTT0=
EXTT1=
EXTT2=
EXTT3=
EXTT4=
EXTT5=
EXTT6=
EXTT7=
EXTT8=
EXTT9=
EXTT10=
EXTT11=
PLAYORDER=
